<svg id="Calque_5" data-name="Calque 5" xmlns="http://www.w3.org/2000/svg" viewBox="0 0 204.79 164.11"><defs><style>.cls-1{fill:none;stroke:#fff;stroke-miterlimit:10;stroke-width:5px;}</style></defs><path class="cls-1" d="M-3136.21,191.93c0,6,.5,12,2.79,17.59,2.6,6.37,7.28,11.6,11.5,17,6.38,8.19,10.32,17.13,8.92,27.71-2,15.44-16.28,25.08-31.31,24.68-9.49-.25-18.63-4.1-26.38-9.6-9.82-7-18.28-16.65-25.73-26-7.24-9.12-13.5-19.19-17.06-30.35-9-28.32,4.72-59.33,34.34-67.56a40.88,40.88,0,0,1,21.14-.55,28.72,28.72,0,0,1,17.09,12c4.25,6.72,5,15,4.95,23C-3136,183.82-3136.21,187.88-3136.21,191.93Z" transform="translate(3218.71 -141.21)"/><path class="cls-1" d="M-3143.49,197.59a31.27,31.27,0,0,0,1.9,12c1.77,4.35,5,7.92,7.86,11.63,4.35,5.59,7,11.7,6.09,18.92-1.39,10.54-11.12,17.13-21.38,16.86-6.49-.17-12.73-2.81-18-6.56-6.71-4.76-12.48-11.37-17.57-17.78-4.95-6.22-9.22-13.1-11.65-20.72-6.16-19.34,3.22-40.52,23.45-46.13a27.75,27.75,0,0,1,14.44-.38,19.62,19.62,0,0,1,11.67,8.2c2.9,4.59,3.42,10.26,3.38,15.69C-3143.35,192.05-3143.49,194.83-3143.49,197.59Z" transform="translate(3218.71 -141.21)"/><path class="cls-1" d="M-3150.07,202.57a18.49,18.49,0,0,0,1.12,7c1,2.55,2.91,4.64,4.59,6.81,2.55,3.27,4.13,6.85,3.57,11.07-.81,6.17-6.51,10-12.51,9.87a19.4,19.4,0,0,1-10.55-3.84,52.49,52.49,0,0,1-10.28-10.4,38.58,38.58,0,0,1-6.82-12.13c-3.61-11.32,1.88-23.72,13.72-27a16.37,16.37,0,0,1,8.45-.22,11.48,11.48,0,0,1,6.83,4.8c1.7,2.69,2,6,2,9.19C-3150,199.33-3150.07,201-3150.07,202.57Z" transform="translate(3218.71 -141.21)"/><path class="cls-1" d="M-3096.44,254.6c0-6-.49-12-2.78-17.59-2.6-6.37-7.29-11.6-11.51-17-6.37-8.19-10.31-17.13-8.92-27.71,2-15.44,16.28-25.08,31.31-24.69,9.5.25,18.64,4.11,26.38,9.61,9.83,7,18.29,16.65,25.74,26,7.24,9.12,13.5,19.19,17,30.35,9,28.32-4.71,59.33-34.33,67.55a40.78,40.78,0,0,1-21.14.56,28.77,28.77,0,0,1-17.1-12c-4.24-6.72-5-15-4.94-23C-3096.65,262.71-3096.43,258.64-3096.44,254.6Z" transform="translate(3218.71 -141.21)"/><path class="cls-1" d="M-3089.75,235.52a31.46,31.46,0,0,0-1.9-12c-1.78-4.35-5-7.92-7.86-11.63-4.35-5.6-7-11.7-6.09-18.92,1.39-10.54,11.12-17.13,21.38-16.86,6.48.17,12.73,2.8,18,6.56,6.71,4.76,12.48,11.37,17.57,17.77,5,6.23,9.22,13.11,11.64,20.73,6.17,19.34-3.22,40.52-23.44,46.13a28,28,0,0,1-14.44.38,19.67,19.67,0,0,1-11.67-8.2c-2.9-4.59-3.42-10.27-3.38-15.69C-3089.9,241.06-3089.75,238.28-3089.75,235.52Z" transform="translate(3218.71 -141.21)"/></svg>